<svg width="132" height="129" viewBox="0 0 132 129" fill="none" xmlns="http://www.w3.org/2000/svg">
<circle cx="64.129" cy="64.129" r="45.5" transform="rotate(-139.715 64.129 64.129)" fill="#C9C9C9"/>
<path d="M76.5795 20.6328C84.7778 22.8903 92.1795 27.4001 97.9449 33.6506C103.71 39.9011 107.609 47.6422 109.198 55.9958C110.788 64.3494 110.004 72.9813 106.937 80.9123C103.87 88.8433 98.6412 95.756 91.8447 100.866C85.0482 105.977 76.9556 109.081 68.4848 109.825C60.014 110.57 51.504 108.926 43.9201 105.08C36.3362 101.234 29.9818 95.3392 25.5778 88.065C21.1737 80.7909 18.8962 72.4281 19.0037 63.9253L64.5 64.5L76.5795 20.6328Z" fill="#6B151D"/>
<circle cx="123.5" cy="16.5001" r="8.5" fill="#E7B944"/>
</svg>
