<svg width="66" height="66" viewBox="0 0 66 66" fill="none" xmlns="http://www.w3.org/2000/svg">
<rect x="23" y="22" width="21" height="21" rx="10.5" fill="#B91122"/>
<path d="M38.0625 32.5L31.2187 36.4512L31.2187 28.5487L38.0625 32.5Z" fill="#D9D9D9"/>
<path d="M47.7232 51.2584C43.9449 54.3204 39.3255 56.1622 34.477 56.54C29.6285 56.9178 24.7796 55.8137 20.5726 53.374C16.3656 50.9343 12.999 47.2741 10.9188 42.8782C8.83868 38.4823 8.14306 33.5581 8.92412 28.758C9.70518 23.9579 11.9261 19.5084 15.2926 15.9987C18.6592 12.4891 23.0125 10.085 27.7759 9.10497C32.5394 8.1249 37.4882 8.61508 41.9668 10.5106C46.4455 12.4061 50.2426 15.6174 52.8552 19.7193L51.6845 20.465C49.223 16.6003 45.6455 13.5747 41.4258 11.7888C37.2062 10.0029 32.5436 9.54108 28.0556 10.4645C23.5677 11.3879 19.4661 13.6529 16.2943 16.9596C13.1224 20.2662 11.03 24.4584 10.2941 28.9809C9.55818 33.5034 10.2136 38.1428 12.1734 42.2845C14.1333 46.4262 17.3052 49.8747 21.2689 52.1733C25.2326 54.472 29.801 55.5122 34.3692 55.1562C38.9373 54.8003 43.2895 53.065 46.8493 50.1801L47.7232 51.2584Z" fill="#F1A5AD"/>
</svg>
