<svg width="66" height="66" viewBox="0 0 66 66" fill="none" xmlns="http://www.w3.org/2000/svg">
<path d="M47.7232 51.2583C43.9449 54.3203 39.3255 56.1621 34.477 56.5399C29.6285 56.9177 24.7796 55.8136 20.5726 53.3739C16.3656 50.9342 12.999 47.274 10.9188 42.8781C8.83868 38.4822 8.14306 33.558 8.92412 28.7579C9.70518 23.9578 11.9261 19.5083 15.2926 15.9986C18.6592 12.489 23.0125 10.0849 27.7759 9.10487C32.5394 8.1248 37.4882 8.61498 41.9668 10.5105C46.4455 12.406 50.2426 15.6173 52.8552 19.7192L51.6845 20.4649C49.223 16.6002 45.6455 13.5746 41.4258 11.7887C37.2062 10.0028 32.5436 9.54098 28.0556 10.4644C23.5677 11.3878 19.4661 13.6528 16.2943 16.9595C13.1224 20.2661 11.03 24.4583 10.2941 28.9808C9.55818 33.5033 10.2136 38.1427 12.1734 42.2844C14.1333 46.4261 17.3052 49.8746 21.2689 52.1732C25.2326 54.4719 29.801 55.5121 34.3692 55.1562C38.9373 54.8002 43.2895 53.0649 46.8493 50.18L47.7232 51.2583Z" fill="#DA4B5A"/>
<path d="M35.43 26.9299L41.5 32.9999L35.43 39.0699" stroke="#DA4B5A" stroke-width="1.5" stroke-miterlimit="10" stroke-linecap="round" stroke-linejoin="round"/>
<path d="M24.5 33H41.33" stroke="#DA4B5A" stroke-width="1.5" stroke-miterlimit="10" stroke-linecap="round" stroke-linejoin="round"/>
</svg>
