<svg width="53" height="16" viewBox="0 0 53 16" fill="none" xmlns="http://www.w3.org/2000/svg">
<path d="M8.90234 8.79688C8.90234 7.6901 8.29036 6.75911 7.06641 6.00391C6.88411 5.89974 6.18099 5.54818 4.95703 4.94922C3.83724 4.38932 3.14062 3.84245 2.86719 3.30859C2.72396 3.02214 2.65234 2.72917 2.65234 2.42969C2.65234 1.64844 3.02995 1.11458 3.78516 0.828125C4.08464 0.710938 4.40365 0.652344 4.74219 0.652344C5.8099 0.652344 6.61719 1.03646 7.16406 1.80469C7.52865 2.32552 7.71094 2.94401 7.71094 3.66016H8.41406V0.164062C8.04948 0.164062 7.84115 0.28776 7.78906 0.535156C7.77604 0.626302 7.76953 0.730469 7.76953 0.847656C6.74089 0.339844 5.63411 0.0859375 4.44922 0.0859375C2.9388 0.0859375 1.78646 0.489583 0.992188 1.29688C0.471354 1.83073 0.210938 2.46224 0.210938 3.19141C0.210938 4.28516 0.822917 5.20312 2.04688 5.94531C2.24219 6.04948 2.95833 6.40755 4.19531 7.01953C5.34115 7.57943 6.05078 8.13281 6.32422 8.67969C6.46745 8.95312 6.53906 9.23958 6.53906 9.53906C6.53906 10.4505 6.11589 11.0755 5.26953 11.4141C4.93099 11.5573 4.55339 11.6289 4.13672 11.6289C2.58724 11.6289 1.5651 10.8672 1.07031 9.34375C0.940104 8.91406 0.855469 8.44531 0.816406 7.9375H0.113281V12.0391C0.438802 12.0391 0.634115 11.9414 0.699219 11.7461C0.72526 11.6289 0.738281 11.4466 0.738281 11.1992C1.75391 11.8633 2.94531 12.1953 4.3125 12.1953C5.91406 12.1953 7.14453 11.7786 8.00391 10.9453C8.60286 10.3594 8.90234 9.64323 8.90234 8.79688ZM19.8594 11.4922H19.0977V3.64062H15.7773V4.12891H16.9492L16.9297 8.83594C16.8646 9.8776 16.487 10.6068 15.7969 11.0234C15.5365 11.1667 15.276 11.2383 15.0156 11.2383C14.1562 11.2383 13.6615 10.75 13.5312 9.77344C13.5052 9.60417 13.4922 9.4349 13.4922 9.26562V3.64062H10.0938V4.12891H11.3438V8.95312C11.3568 11.1016 12.2878 12.1823 14.1367 12.1953C15.1914 12.1953 16.0312 11.7526 16.6562 10.8672C16.7865 10.6719 16.8971 10.4766 16.9883 10.2812L17.0859 12H20.3281C20.3281 11.7005 20.2435 11.5378 20.0742 11.5117C20.0091 11.4987 19.9375 11.4922 19.8594 11.4922ZM25.2305 11.4922H24.625L24.6445 6.66797C24.7357 5.6263 25.1263 4.91016 25.8164 4.51953C26.0638 4.38932 26.3112 4.32422 26.5586 4.32422C27.2878 4.32422 27.75 4.70833 27.9453 5.47656C28.0104 5.71094 28.043 5.97135 28.043 6.25781V10.4375C28.043 10.9844 27.8932 11.3099 27.5938 11.4141C27.4505 11.4661 27.2422 11.4922 26.9688 11.4922V12H31.4414C31.4414 11.7135 31.3568 11.5508 31.1875 11.5117C31.1094 11.4987 31.0312 11.4922 30.9531 11.4922H30.1914V6.55078C30.1914 5.01432 29.6576 4.02474 28.5898 3.58203C28.2513 3.4388 27.8867 3.36719 27.4961 3.36719C26.5586 3.36719 25.7643 3.73828 25.1133 4.48047C24.9049 4.72786 24.7357 4.98828 24.6055 5.26172L24.5078 3.64062H21.2266V4.12891H22.4766V10.4375C22.4766 11.0104 22.2617 11.3424 21.832 11.4336C21.6628 11.4727 21.4609 11.4922 21.2266 11.4922V12H25.7188C25.7188 11.7135 25.6341 11.5508 25.4648 11.5117C25.3867 11.4987 25.3086 11.4922 25.2305 11.4922ZM36.2461 11.4922H35.6406L35.6602 6.66797C35.7513 5.6263 36.1419 4.91016 36.832 4.51953C37.0794 4.38932 37.3268 4.32422 37.5742 4.32422C38.3034 4.32422 38.7656 4.70833 38.9609 5.47656C39.026 5.71094 39.0586 5.97135 39.0586 6.25781V10.4375C39.0586 10.9844 38.9089 11.3099 38.6094 11.4141C38.4661 11.4661 38.2578 11.4922 37.9844 11.4922V12H42.457C42.457 11.7135 42.3724 11.5508 42.2031 11.5117C42.125 11.4987 42.0469 11.4922 41.9688 11.4922H41.207V6.55078C41.207 5.01432 40.6732 4.02474 39.6055 3.58203C39.2669 3.4388 38.9023 3.36719 38.5117 3.36719C37.5742 3.36719 36.7799 3.73828 36.1289 4.48047C35.9206 4.72786 35.7513 4.98828 35.6211 5.26172L35.5234 3.64062H32.2422V4.12891H33.4922V10.4375C33.4922 11.0104 33.2773 11.3424 32.8477 11.4336C32.6784 11.4727 32.4766 11.4922 32.2422 11.4922V12H36.7344C36.7344 11.7135 36.6497 11.5508 36.4805 11.5117C36.4023 11.4987 36.3242 11.4922 36.2461 11.4922ZM45.1719 15.125C44.9505 15.125 44.7747 14.9557 44.6445 14.6172C44.4753 14.1745 44.319 13.901 44.1758 13.7969C44.0326 13.6927 43.8568 13.6406 43.6484 13.6406C43.2057 13.6406 42.9258 13.8294 42.8086 14.207C42.7826 14.2982 42.7695 14.3828 42.7695 14.4609C42.7695 14.9167 43.043 15.2747 43.5898 15.5352C43.9284 15.6914 44.2995 15.7695 44.7031 15.7695C45.7708 15.7695 46.6758 15.138 47.418 13.875C47.7044 13.4062 47.9779 12.8398 48.2383 12.1758L51.1484 4.73438C51.2917 4.38281 51.4544 4.1875 51.6367 4.14844C51.6888 4.13542 51.7474 4.12891 51.8125 4.12891C52.0859 4.12891 52.2422 4.04427 52.2812 3.875C52.2943 3.8099 52.3008 3.73177 52.3008 3.64062H49.293V4.12891H50.7578L48.4922 9.83203L46.0508 4.12891H47.2812V3.64062H42.9258V4.12891H43.8047L47.5156 12.2734C46.8516 13.888 46.2135 14.8125 45.6016 15.0469C45.4583 15.099 45.3151 15.125 45.1719 15.125Z" fill="black"/>
</svg>
